<?xml version="1.0" encoding="utf-8"?>
<!-- Generator: Adobe Illustrator 22.1.0, SVG Export Plug-In . SVG Version: 6.00 Build 0)  -->
<svg version="1.1" xmlns="http://www.w3.org/2000/svg" xmlns:xlink="http://www.w3.org/1999/xlink" x="0px" y="0px"
	 viewBox="0 0 2272 1872" style="enable-background:new 0 0 2272 1872;" xml:space="preserve">
<style type="text/css">
	.st0{fill: transparent;}
	.st1{fill:#D9F8FC;}
	.st2{fill:#BDDAE5;}
	.st3{fill:#EC5946;}
	.st4{fill:#9B3930;}
	.st5{fill:#849CA3;}
	.st6{fill:#F8BC9F;}
	.st7{fill:#C6616E;}
	.st8{fill:#DCE7FD;}
	.st9{fill:#444A4C;}
	.st10{fill:#737F82;}
	.st11{fill:none;}
</style>
<g id="Background">
	<g>
		<g>
			<rect x="0" class="st0" width="2272" height="1872"/>
		</g>
	</g>
</g>
<g id="object">
	<g>
		<path class="st1" d="M2088.9,1425.1c-40.4-56.4-101.2-103.1-118.1-169c-17.4-68,16.7-141.4-4.8-208.4
			c-30.6-95.2-156.6-134.5-209-221.1c-44.3-73.2-28.3-167.3-69-242.4c-48.9-90.2-169.9-135.6-207.2-230.5
			c-16.4-41.8-14-87.5-18.9-131.7s-20.1-91.6-59.8-116.5c-40.9-25.6-95.8-19.8-142.6-5.4c-46.8,14.4-91.8,36.4-140.9,40.5
			c-57.2,4.8-114.7-15.1-171.6-7.9c-95.1,12-160.1,94.3-203.7,173.8c-43.5,79.5-81.5,168.2-161.4,217.7
			c-64,39.6-153.6,53.8-187.6,117.9c-22.7,42.9-11.5,94.5-23.6,141.1C341.8,895.2,194,943,136.5,1044.9
			c-69.1,122.4,13.5,272.8-10.2,409.3c-9.1,52.6-34.2,102.5-38.1,155.7c-5.5,73.7,30.6,145.8,82.1,202c20,21.8,42.2,41.6,65.7,60.2
			h1885c16.7-61.9,30.4-124.3,33.9-187.9C2159.8,1594,2142.7,1500.2,2088.9,1425.1z"/>
		<g>
			<g>
				<path class="st2" d="M1288.3,718.3h-285.1c-123.9,0-224.3,100.4-224.3,224.3V1872h733.7V942.5
					C1512.5,818.7,1412.1,718.3,1288.3,718.3z"/>
				<polygon class="st3" points="1131.6,827.4 1095.7,1183.6 1132,1366.6 1175.8,1196.3 1156.8,827.4 				"/>
				<path class="st4" d="M1149.3,857.8c3.3,0,6.3-1,8.9-2.6l-1.4-27.8h-25.2l-2.8,27.4c2.7,1.9,6,3,9.6,3H1149.3z"/>
				<polygon class="st5" points="1101.8,740.6 1149.5,809.6 1085.5,848 				"/>
				<polygon class="st5" points="1189.5,740.6 1141.9,809.6 1205.9,848 				"/>
				<g>
					<g>
						<path class="st6" d="M454.9,870.3c0,0,65.1-45.6,50.5-108.8s-67-29.1-67-29.1s6.8-162.2-14.6-166.1
							c-21.4-3.9-35,38.8-32,123.3c0,0-102,9.7-98.1,62.1c3.9,52.4,44.7,153.4,75.7,162.2C400.5,922.8,454.9,870.3,454.9,870.3z"/>
						<g>
							<path class="st7" d="M380.5,839.7c-1.9-9.3-0.3-17.8,4.7-25.3c5.5-8.2,14.8-15.1,27.8-20.5c-34.8,1.3-52-13.1-55.5-16.4
								c-4.5-4.4-6.8-9-6.3-12.7c0.3-2.3,1.1-7.7,44.5-21.8c21-6.8,42-12.4,42.2-12.4l1,3.6c-0.2,0.1-21.2,5.6-42,12.4
								c-39.2,12.7-41.8,17.8-42,18.7c-0.3,1.9,1,5.3,5.2,9.4c17.1,16.4,49.4,17.3,71.9,13.2l0.7,3.7c-0.3,0.1-32.1,6.3-44.4,24.8
								c-4.5,6.7-5.9,14.3-4.1,22.5L380.5,839.7z"/>
						</g>
					</g>
					<g>
						<path class="st0" d="M551.2,1452.3c-14.6,0-30.7-2.8-47.2-10.6c-37.3-17.6-67-52.9-90.8-107.9
							c-15.4-35.8-28.7-80.3-40.7-136.1c-20.2-94.5-31.4-199-38.1-261.5c-2.1-19.4-7.4-39.8-3.8-40.9c67-19.4,88.1-31,152-37.3
							c4.6-0.5,1.8,9.9,2.7,17.3c1.4,11,3,25.7,5,44.3c6.2,58.5,15.7,146.9,32.1,229.3c14,70.3,28,109.3,38,130.4
							c24.5-25.7,70.8-85.9,143.9-223.9c61.5-116.3,109.7-226.9,110.2-228l143.8,62.4c-2.1,4.9-52.8,121.4-118.8,245.3
							c-128,240.4-197.8,291.3-244.2,308.9C583.6,1448.5,568.4,1452.3,551.2,1452.3z M574.8,1302.3
							C574.8,1302.3,574.8,1302.3,574.8,1302.3C574.8,1302.3,574.8,1302.3,574.8,1302.3z"/>
					</g>
					<path class="st8" d="M877.6,854.7c-45.8,112.2-92.4,224.1-140,335.5c-33.5,78.5-67.5,156.9-104.9,233.6
						c45.4-32.2,109.1-105.3,206.8-288.7c66-123.9,116.7-240.4,118.8-245.3L877.6,854.7z"/>
				</g>
				<g>
					<g>
						<path class="st6" d="M1817.1,870.3c0,0-65.1-45.6-50.5-108.8s67-29.1,67-29.1s-6.8-162.2,14.6-166.1s35,38.8,32,123.3
							c0,0,102,9.7,98.1,62.1c-3.9,52.4-44.7,153.4-75.7,162.2C1871.5,922.8,1817.1,870.3,1817.1,870.3z"/>
						<g>
							<path class="st7" d="M1891.5,839.7c1.9-9.3,0.3-17.8-4.7-25.3c-5.5-8.2-14.8-15.1-27.8-20.5c34.8,1.3,52-13.1,55.5-16.4
								c4.5-4.4,6.8-9,6.3-12.7c-0.3-2.3-1.1-7.7-44.5-21.8c-21-6.8-42-12.4-42.2-12.4l-1,3.6c0.2,0.1,21.2,5.6,42,12.4
								c39.2,12.7,41.8,17.8,42,18.7c0.3,1.9-1,5.3-5.2,9.4c-17.1,16.4-49.4,17.3-71.9,13.2l-0.7,3.7c0.3,0.1,32.1,6.3,44.4,24.8
								c4.5,6.7,5.9,14.3,4.1,22.5L1891.5,839.7z"/>
						</g>
					</g>
					<g>
						<path class="st0" d="M1676.6,1444c-46.5-17.5-116.2-68.5-244.2-308.9c-66-123.9-116.7-240.4-118.8-245.3l143.8-62.4
							c0.5,1.1,48.6,111.7,110.2,228c73,138,119.4,198.2,143.9,223.9c10-21.1,23.9-60.1,38-130.4c16.5-82.4,25.9-170.8,32.1-229.3
							c2-18.6,3.6-33.3,5-44.3c1-7.4-1.9-17.7,2.7-17.3c63.8,6.3,85,18,152,37.3c3.6,1-1.7,21.5-3.8,40.9
							c-6.7,62.5-17.8,167-38.1,261.5c-11.9,55.7-25.2,100.2-40.7,136.1c-23.7,55.1-53.4,90.4-90.8,107.9
							c-16.5,7.8-32.5,10.6-47.2,10.6C1703.6,1452.3,1688.4,1448.5,1676.6,1444z M1697.2,1302.3
							C1697.2,1302.3,1697.2,1302.3,1697.2,1302.3C1697.2,1302.3,1697.2,1302.3,1697.2,1302.3z"/>
					</g>
					<path class="st8" d="M1394.4,854.7c45.8,112.2,92.4,224.1,140,335.5c33.5,78.5,67.5,156.9,104.9,233.6
						c-45.4-32.2-109.1-105.3-206.8-288.7c-66-123.9-116.7-240.4-118.8-245.3L1394.4,854.7z"/>
				</g>
				<path class="st0" d="M1298.8,718.5L1132,1366.6l-128.9-648.3c-123.9,0-224.3,100.4-224.3,224.3V1872h733.7V942.5
					C1512.5,822.2,1417.8,724,1298.8,718.5z"/>
				<path class="st2" d="M1254.7,974h118.8l-30.7-226.8c-14.2-3.5-28.9-5.7-44-6.4L1132,1388.9l211.6-308.9L1254.7,974z"/>
				<path class="st2" d="M1010.2,976l-94.1,94.1l216,318.7l-128.9-648.3c-20.5,0-23,2.8-41.8,7.9L913.5,976H1010.2z"/>
				<path class="st0" d="M1254.7,951.7h138L1342.8,725c-14.2-3.5-28.9-5.7-44-6.4L1132,1366.6l211.6-308.9L1254.7,951.7z"/>
				<path class="st0" d="M1010.2,953.7l-94.1,94.1l216,318.7l-128.9-648.3c-20.5,0-40.3,2.8-59.1,7.9l-47.6,227.5H1010.2z"/>
				<g>
					<g>
						<rect x="1091.2" y="582.8" class="st6" width="109" height="216.9"/>
						<path class="st7" d="M1091.2,582.8v113.1c14.2,7,30.3,11,47.2,11h9.3c19.1,0,37-5,52.5-13.7V582.8H1091.2z"/>
						<g>
							<circle class="st6" cx="1252.7" cy="504.8" r="54.1"/>
							<circle class="st7" cx="1252.7" cy="504.8" r="28.1"/>
						</g>
						<g>
							<circle class="st6" cx="1037.2" cy="504.8" r="54.1"/>
							<circle class="st7" cx="1037.2" cy="504.8" r="28.1"/>
						</g>
						<path class="st6" d="M1143.1,666.5L1143.1,666.5c-61.6,0-111.6-49.9-111.6-111.6v-196h223.1v196
							C1254.7,616.5,1204.7,666.5,1143.1,666.5z"/>
						<path class="st7" d="M1031.6,358.9v58.4c21.4,14.4,47.8,21.9,73.9,25.8c47.4,7.1,100.5,8.2,138-21.7
							c-4.9,13.7,11.2-62.6,11.2-62.6H1031.6z"/>
						<path class="st9" d="M1031.6,358.9v88.7c0.7,2,1.1,3.1,1.1,3.1l-2.2,62c8.5-16.6,19.1-38.3,27.6-54.9c1.3-2.6,2.7-5.3,2.8-8.1
							c0.1-2.6-0.8-5.1-1.7-7.6c-4.9-13.7-9.9-27.4-14.8-41.1c37.5,29.9,90.6,28.8,138,21.7c25.4-3.8,51.3-11.1,72.3-24.8v-39
							H1031.6z"/>
					</g>
					<path class="st3" d="M1149.3,803.8h-10.8c-9.3,0-16.8,7.5-16.8,16.8v6.9c0,9.3,7.5,16.8,16.8,16.8h10.8
						c9.3,0,16.8-7.5,16.8-16.8v-6.9C1166.1,811.4,1158.6,803.8,1149.3,803.8z"/>
					<polygon class="st8" points="1090.9,713.7 1150.4,800 1070.5,848 					"/>
					<polygon class="st8" points="1200.5,713.7 1141,800 1220.9,848 					"/>
				</g>
				<g>
					<path class="st8" d="M1230.2,1423.6v211.9c0,46.5,37.7,84.2,84.2,84.2h60.5c46.5,0,84.2-37.7,84.2-84.2v-211.9H1230.2z"/>
					<rect x="1220.9" y="1423.6" class="st2" width="249.1" height="10.9"/>
				</g>
				<g>
					<path class="st8" d="M830.7,1423.6v211.9c0,46.5,37.7,84.2,84.2,84.2h60.5c46.5,0,84.2-37.7,84.2-84.2v-211.9H830.7z"/>
					<rect x="821.4" y="1423.6" class="st2" width="249.1" height="10.9"/>
				</g>
				<path class="st9" d="M1006.6,373.4c22.7,30.5,61.2,43.7,98.8,49.3c47.4,7.1,100.5,8.2,138-21.7c-4.9,13.7-9.9,27.4-14.8,41.1
					c-0.9,2.5-1.8,5-1.7,7.6c0.1,2.9,1.5,5.6,2.8,8.1c8.5,16.6,16.9,33.2,25.4,49.8v-56.9c0,0,34.5-95.1,25.6-118.2
					s-56.1-20.7-56.1-20.7s-73.2-37.7-133.5-32.9C1030.9,283.8,944.6,290.1,1006.6,373.4z"/>
				<path class="st10" d="M1140.6,386.6c24.8,3.7,50.2,4.1,75,0c8.3-1.4,17.3-3.8,21.8-10.9c2.7-4.3-6.5-16.1-8.9-17.7
					c3.2-0.6,33.2,0.6,42.3-8c4.2-4,7.8-8.4,11.1-13.1c-0.2-1.7-0.6-3.2-1.1-4.4c-8.9-23.1-56.1-20.7-56.1-20.7
					s-73.2-37.7-133.5-32.9c-34.2,2.8-76.9,6-96,23.5C1027.4,349.4,1083.7,378.1,1140.6,386.6z"/>
			</g>
			<path class="st3" d="M1167.1,568.7l-22.3-66.4c-1.2-3.5-6.2-3.4-7.2,0.2l-18.8,66.4c-0.7,2.4,1.1,4.8,3.6,4.8h41.1
				C1166.1,573.7,1168,571.1,1167.1,568.7z"/>
		</g>
		<g>
			<g>
				<rect x="391.3" y="188.3" class="st3" width="38.7" height="213.4"/>
				
					<rect x="391.3" y="188.3" transform="matrix(-1.836970e-16 1 -1 -1.836970e-16 705.6197 -115.6675)" class="st3" width="38.7" height="213.4"/>
			</g>
			<g>
				<rect x="533.9" y="379.3" class="st3" width="27.3" height="150.2"/>
				
					<rect x="533.9" y="379.3" transform="matrix(-1.836970e-16 1 -1 -1.836970e-16 1001.9501 -93.0862)" class="st3" width="27.3" height="150.2"/>
			</g>
			<g>
				<rect x="290.3" y="379.3" class="st3" width="27.3" height="150.2"/>
				
					<rect x="290.3" y="379.3" transform="matrix(-1.836970e-16 1 -1 -1.836970e-16 758.3896 150.4743)" class="st3" width="27.3" height="150.2"/>
			</g>
		</g>
		<g>
			<g>
				<rect x="1798.7" y="188.3" class="st3" width="38.7" height="213.4"/>
				
					<rect x="1798.7" y="188.3" transform="matrix(-1.836970e-16 1 -1 -1.836970e-16 2112.9907 -1523.0385)" class="st3" width="38.7" height="213.4"/>
			</g>
			<g>
				<rect x="1941.3" y="379.3" class="st3" width="27.3" height="150.2"/>
				
					<rect x="1941.3" y="379.3" transform="matrix(-1.836970e-16 1 -1 -1.836970e-16 2409.321 -1500.4572)" class="st3" width="27.3" height="150.2"/>
			</g>
			<g>
				<rect x="1697.7" y="379.3" class="st3" width="27.3" height="150.2"/>
				
					<rect x="1697.7" y="379.3" transform="matrix(-1.836970e-16 1 -1 -1.836970e-16 2165.7605 -1256.8967)" class="st3" width="27.3" height="150.2"/>
			</g>
		</g>
		<path class="st11" d="M443.8,1949.7c-58.2-40.4-117-81.4-162.9-135.3c-45.9-53.9-78.2-123.1-73.2-193.8c3.6-51,25.9-98.8,34-149.3
			c21.1-130.9-52.6-275.1,9.1-392.5c51.3-97.7,183.1-143.6,209-250.8c10.8-44.6,0.8-94.1,21.1-135.3
			C511,631.3,591,617.6,648.1,579.6c71.2-47.4,105.1-132.5,143.9-208.8c38.8-76.3,96.8-155.2,181.6-166.7c50.7-6.9,102,12.2,153,7.6
			c43.8-4,83.9-25.1,125.6-38.9c41.7-13.8,90.7-19.4,127.2,5.2c35.3,23.8,48.9,69.3,53.3,111.7c4.4,42.4,2.2,86.3,16.9,126.3
			c33.3,91,141.2,134.5,184.8,221.1c36.2,72,22,162.2,61.5,232.4c46.7,83,159,120.8,186.4,212c19.2,64.2-11.3,134.7,4.3,199.9
			c15.1,63.2,69.4,108,105.3,162c48,72.1,63.2,162,58.8,248.4c-4.4,86.5-27.2,170.8-49.8,254.4"/>
	</g>
</g>
</svg>
